# xmcd CD database file
#
# Track frame offsets:
#	150
#	14725
#	24794
#	37054
#	52017
#	65607
#	79512
#	92832
#	108571
#	123950
#	137740
#	152084
#	164756
#	180732
#	226021
#	246312
#	293820
#	313302
#
# Disc length: 4336 seconds
#
# Revision: 0
# Processed by: cddbd v1.5.2PL0 Copyright (c) Steve Scherf et al.
# Submitted via: CDex 1.51
#
DISCID=fd10ee12
DTITLE=Woody Herman - Swing Low, Sweet Clarinet and At Monterey
DYEAR=2015
DGENRE=Jazz
TTITLE0=Swing Low, Sweet Clarinet
TTITLE1=Rose Room
TTITLE2=Sweet Lorraine
TTITLE3=Blue Moon
TTITLE4=Begin The Beguine
TTITLE5=Pee Wee Blues
TTITLE6=Don't Be That Way
TTITLE7=Someday Sweetheart
TTITLE8=Mood Indigo
TTITLE9=Summit Ridge Drive
TTITLE10=On The Sunny Side Of The Street
TTITLE11=Alexandra
TTITLE12=Four Brothers
TTITLE13=Like Some Blues Man
TTITLE14=Skoobeedoobee
TTITLE15=Monterey Apple Tree
TTITLE16=Skylark
TTITLE17=The Magpie
EXTD=YEAR: 2015
EXTT0=
EXTT1=
EXTT2=
EXTT3=
EXTT4=
EXTT5=
EXTT6=
EXTT7=
EXTT8=
EXTT9=
EXTT10=
EXTT11=
EXTT12=
EXTT13=
EXTT14=
EXTT15=
EXTT16=
EXTT17=
PLAYORDER=
